<svg width="128" height="128" viewBox="0 0 128 128" fill="none" xmlns="http://www.w3.org/2000/svg">
<rect x="10" y="10" width="109" height="109" rx="24" fill="#ECF6C0"/>
<path d="M10.0865 35C10.0384 34.3525 10 33.7012 10 33.0392C10 20.2755 19.1151 10 30.4375 10H98.5625C109.885 10 119 20.2755 119 33.0392C119 33.7012 118.962 34.3525 118.914 35C118.035 23.1628 109.298 13.9216 98.5625 13.9216H30.4375C19.7024 13.9216 10.9653 23.1628 10.0865 35Z" fill="white" fill-opacity="0.2"/>
<rect opacity="0.5" x="42" y="20" width="42" height="88" rx="21" fill="#4958A9"/>
<rect opacity="0.5" x="19.6051" y="85.3967" width="42" height="88" rx="21" transform="rotate(-90 19 85)" fill="#4958A9"/>
<rect opacity="0.5" x="17.6432" y="48.1333" width="42" height="88" rx="21" transform="rotate(-45 17 48)" fill="#4958A9"/>
<rect opacity="0.5" x="79.8685" y="18.4348" width="42" height="88" rx="21" transform="rotate(45 79 18)" fill="#4958A9"/>
<rect x="52" y="52" width="24" height="24" rx="12" fill="#ECF6C0"/>
<path d="M10.0865 94C10.0384 94.6475 10 95.2988 10 95.9608C10 108.724 21.1151 119 32.4375 119H96.5625C107.885 119 119 108.724 119 95.9608C119 95.2988 118.962 94.6475 118.914 94C118.035 105.837 109.298 115.078 98.5625 115.078H30.4375C19.7024 115.078 10.9653 105.837 10.0865 94Z" fill="black" fill-opacity="0.2"/>
</svg>
