<svg width="128" height="128" viewBox="0 0 128 128" fill="none" xmlns="http://www.w3.org/2000/svg">
<rect x="10" y="10" width="109" height="109" rx="24" fill="#ECF6C0"/>
<path d="M10.0865 35C10.0384 34.3525 10 33.7012 10 33.0392C10 20.2755 19.1151 10 30.4375 10H98.5625C109.885 10 119 20.2755 119 33.0392C119 33.7012 118.962 34.3525 118.914 35C118.035 23.1628 109.298 13.9216 98.5625 13.9216H30.4375C19.7024 13.9216 10.9653 23.1628 10.0865 35Z" fill="white" fill-opacity="0.6"/>
<path d="M10.0865 94C10.0384 94.6475 10 95.2988 10 95.9608C10 108.724 21.1151 119 32.4375 119H96.5625C107.885 119 119 108.724 119 95.9608C119 95.2988 118.962 94.6475 118.914 94C118.035 105.837 109.298 115.078 98.5625 115.078H30.4375C19.7024 115.078 10.9653 105.837 10.0865 94Z" fill="black" fill-opacity="0.2"/>
<path d="M89.0258 27.9192C91.9068 28.115 93.3472 28.2129 94.5115 28.7221C96.1962 29.4588 97.5412 30.8038 98.2779 32.4885C98.7871 33.6527 98.885 35.0932 99.0808 37.9741L99.5275 44.5485C99.6067 45.7137 99.6463 46.2963 99.773 46.8529C99.956 47.657 100.274 48.4244 100.713 49.1224C101.017 49.6055 101.401 50.0455 102.169 50.9254L106.502 55.8901C108.401 58.0656 109.35 59.1534 109.813 60.3368C110.483 62.049 110.483 63.951 109.813 65.6632C109.35 66.8466 108.401 67.9343 106.502 70.1099L102.169 75.0746C101.401 75.9545 101.017 76.3945 100.713 76.8776C100.274 77.5756 99.956 78.343 99.773 79.1471C99.6463 79.7037 99.6067 80.2863 99.5275 81.4514L99.0808 88.0258C98.885 90.9068 98.7871 92.3472 98.2779 93.5115C97.5412 95.1962 96.1962 96.5412 94.5115 97.2779C93.3472 97.7871 91.9068 97.885 89.0258 98.0808L82.4514 98.5275C81.2863 98.6067 80.7037 98.6463 80.1471 98.773C79.343 98.956 78.5756 99.2739 77.8776 99.7131C77.3945 100.017 76.9545 100.401 76.0746 101.169L71.1099 105.502C68.9344 107.401 67.8466 108.35 66.6632 108.813C64.951 109.483 63.049 109.483 61.3368 108.813C60.1534 108.35 59.0656 107.401 56.8901 105.502L51.9254 101.169C51.0455 100.401 50.6055 100.017 50.1224 99.7131C49.4244 99.2739 48.657 98.956 47.8529 98.773C47.2963 98.6463 46.7137 98.6067 45.5485 98.5276L38.9741 98.0808C36.0932 97.885 34.6527 97.7871 33.4884 97.2779C31.8038 96.5412 30.4588 95.1962 29.7221 93.5115C29.2129 92.3472 29.115 90.9068 28.9192 88.0258L28.4724 81.4514C28.3933 80.2863 28.3537 79.7037 28.227 79.1471C28.044 78.343 27.7261 77.5756 27.2869 76.8776C26.983 76.3945 26.599 75.9545 25.8311 75.0746L21.4982 70.1099C19.5995 67.9343 18.6501 66.8466 18.1869 65.6632C17.5166 63.951 17.5166 62.049 18.1869 60.3368C18.6501 59.1534 19.5995 58.0656 21.4982 55.8901L25.8311 50.9254C26.599 50.0455 26.983 49.6055 27.2869 49.1224C27.7261 48.4244 28.044 47.657 28.227 46.8529C28.3537 46.2963 28.3933 45.7137 28.4724 44.5485L28.9192 37.9742C29.115 35.0932 29.2129 33.6527 29.7221 32.4885C30.4588 30.8038 31.8038 29.4588 33.4885 28.7221C34.6527 28.2129 36.0932 28.115 38.9742 27.9192L45.5485 27.4724C46.7137 27.3933 47.2963 27.3537 47.8529 27.227C48.657 27.044 49.4244 26.7261 50.1224 26.2869C50.6055 25.983 51.0455 25.599 51.9254 24.8311L56.8901 20.4982C59.0656 18.5995 60.1534 17.6501 61.3368 17.1869C63.049 16.5166 64.951 16.5166 66.6632 17.1869C67.8466 17.6501 68.9343 18.5995 71.1099 20.4982L76.0746 24.8311C76.9545 25.599 77.3945 25.983 77.8776 26.2869C78.5756 26.7261 79.343 27.044 80.1471 27.227C80.7037 27.3537 81.2863 27.3933 82.4514 27.4724L89.0258 27.9192Z" fill="#B1B5FF" stroke="black" stroke-opacity="0.1"/>
<path d="M84.4757 34.2976C86.8328 34.4577 88.0113 34.5378 88.9639 34.9544C90.3423 35.5573 91.4427 36.6576 92.0456 38.036C92.4622 38.9886 92.5423 40.1672 92.7024 42.5243L93.068 47.9034C93.1327 48.8567 93.1651 49.3334 93.2688 49.7887C93.4185 50.4467 93.6786 51.0745 94.0379 51.6456C94.2866 52.0409 94.6008 52.4009 95.2291 53.1208L98.7742 57.1828C100.328 58.9628 101.104 59.8528 101.483 60.821C102.032 62.2219 102.032 63.7781 101.483 65.179C101.104 66.1472 100.328 67.0372 98.7742 68.8172L95.2291 72.8793C94.6008 73.5992 94.2866 73.9591 94.0379 74.3544C93.6786 74.9255 93.4185 75.5534 93.2688 76.2113C93.1651 76.6667 93.1327 77.1433 93.068 78.0967L92.7024 83.4757C92.5423 85.8328 92.4622 87.0114 92.0456 87.964C91.4427 89.3424 90.3423 90.4428 88.964 91.0456C88.0113 91.4622 86.8328 91.5423 84.4757 91.7025L79.0966 92.068C78.1433 92.1328 77.6666 92.1652 77.2113 92.2688C76.5533 92.4186 75.9255 92.6786 75.3543 93.038C74.9591 93.2867 74.5991 93.6008 73.8792 94.2291L69.8172 97.7742C68.0372 99.3277 67.1472 100.104 66.179 100.483C64.7781 101.032 63.2219 101.032 61.8209 100.483C60.8528 100.104 59.9628 99.3277 58.1828 97.7742L54.1207 94.2291C53.4008 93.6008 53.0408 93.2867 52.6456 93.038C52.0745 92.6786 51.4466 92.4186 50.7887 92.2688C50.3333 92.1652 49.8567 92.1328 48.9033 92.068L43.5243 91.7025C41.1671 91.5423 39.9886 91.4622 39.036 91.0456C37.6576 90.4428 36.5572 89.3424 35.9544 87.964C35.5378 87.0114 35.4577 85.8328 35.2975 83.4757L34.932 78.0967C34.8672 77.1433 34.8348 76.6667 34.7312 76.2113C34.5814 75.5534 34.3213 74.9255 33.962 74.3544C33.7133 73.9591 33.3991 73.5992 32.7708 72.8793L29.2258 68.8172C27.6723 67.0372 26.8955 66.1472 26.5165 65.179C25.9681 63.7781 25.9681 62.2219 26.5165 60.821C26.8955 59.8528 27.6723 58.9628 29.2258 57.1828L32.7708 53.1208C33.3991 52.4009 33.7133 52.0409 33.962 51.6456C34.3213 51.0745 34.5814 50.4467 34.7312 49.7887C34.8348 49.3334 34.8672 48.8567 34.932 47.9034L35.2975 42.5243C35.4577 40.1672 35.5378 38.9886 35.9544 38.036C36.5572 36.6576 37.6576 35.5573 39.036 34.9544C39.9886 34.5378 41.1671 34.4577 43.5243 34.2976L48.9033 33.932C49.8567 33.8672 50.3333 33.8348 50.7887 33.7312C51.4466 33.5815 52.0745 33.3214 52.6456 32.9621C53.0408 32.7134 53.4008 32.3992 54.1207 31.7709L58.1828 28.2258C59.9628 26.6723 60.8528 25.8956 61.8209 25.5166C63.2219 24.9682 64.7781 24.9682 66.179 25.5166C67.1472 25.8956 68.0372 26.6723 69.8172 28.2258L73.8792 31.7709C74.5991 32.3992 74.9591 32.7134 75.3543 32.9621C75.9255 33.3214 76.5533 33.5815 77.2113 33.7312C77.6666 33.8348 78.1433 33.8672 79.0966 33.932L84.4757 34.2976Z" fill="#C4C7FC" stroke="black" stroke-opacity="0.1"/>
<path d="M79.9256 40.6759C81.7589 40.8004 82.6756 40.8627 83.4165 41.1868C84.4886 41.6556 85.3444 42.5115 85.8133 43.5836C86.1373 44.3245 86.1996 45.2411 86.3242 47.0745L86.6085 51.2582C86.6589 51.9996 86.6841 52.3704 86.7647 52.7245C86.8812 53.2363 87.0834 53.7246 87.3629 54.1688C87.5564 54.4762 87.8007 54.7562 88.2894 55.3161L91.0467 58.4755C92.2549 59.8599 92.8591 60.5522 93.1538 61.3052C93.5804 62.3948 93.5804 63.6052 93.1538 64.6948C92.8591 65.4478 92.2549 66.14 91.0467 67.5245L88.2894 70.6838C87.8007 71.2438 87.5564 71.5238 87.3629 71.8312C87.0834 72.2754 86.8812 72.7637 86.7647 73.2754C86.6841 73.6296 86.6589 74.0003 86.6085 74.7418L86.3242 78.9255C86.1996 80.7589 86.1373 81.6755 85.8133 82.4164C85.3444 83.4885 84.4886 84.3444 83.4165 84.8132C82.6756 85.1373 81.7589 85.1996 79.9256 85.3241L75.7419 85.6084C75.0004 85.6588 74.6297 85.684 74.2755 85.7646C73.7638 85.8811 73.2754 86.0834 72.8312 86.3629C72.5238 86.5563 72.2438 86.8006 71.6839 87.2893L68.5245 90.0466C67.1401 91.2549 66.4479 91.859 65.6948 92.1538C64.6052 92.5803 63.3949 92.5803 62.3053 92.1538C61.5522 91.859 60.86 91.2549 59.4756 90.0466L56.3162 87.2893C55.7563 86.8006 55.4763 86.5563 55.1689 86.3629C54.7247 86.0834 54.2363 85.8811 53.7246 85.7646C53.3704 85.684 52.9997 85.6588 52.2582 85.6084L48.0745 85.3241C46.2412 85.1996 45.3245 85.1373 44.5836 84.8132C43.5115 84.3444 42.6557 83.4885 42.1868 82.4164C41.8628 81.6755 41.8005 80.7589 41.6759 78.9255L41.3916 74.7418C41.3412 74.0003 41.316 73.6296 41.2354 73.2754C41.119 72.7637 40.9167 72.2754 40.6372 71.8312C40.4438 71.5238 40.1994 71.2438 39.7107 70.6839L36.9534 67.5245C35.7452 66.14 35.1411 65.4478 34.8463 64.6948C34.4197 63.6052 34.4197 62.3948 34.8463 61.3052C35.1411 60.5522 35.7452 59.8599 36.9534 58.4755L39.7107 55.3161C40.1994 54.7562 40.4438 54.4762 40.6372 54.1688C40.9167 53.7246 41.119 53.2363 41.2354 52.7245C41.316 52.3704 41.3412 51.9996 41.3916 51.2582L41.6759 47.0745C41.8005 45.2411 41.8628 44.3245 42.1868 43.5836C42.6557 42.5115 43.5115 41.6556 44.5836 41.1868C45.3245 40.8627 46.2412 40.8004 48.0745 40.6759L52.2582 40.3915C52.9997 40.3412 53.3704 40.316 53.7246 40.2354C54.2363 40.1189 54.7247 39.9166 55.1689 39.6371C55.4763 39.4437 55.7563 39.1994 56.3162 38.7107L59.4756 35.9534C60.86 34.7451 61.5522 34.141 62.3053 33.8462C63.3949 33.4197 64.6052 33.4197 65.6948 33.8462C66.4479 34.141 67.1401 34.7451 68.5245 35.9534L71.6839 38.7107C72.2438 39.1994 72.5238 39.4437 72.8312 39.6371C73.2754 39.9166 73.7638 40.1189 74.2755 40.2354C74.6297 40.316 75.0004 40.3412 75.7419 40.3915L79.9256 40.6759Z" fill="#D5DCE4" stroke="black" stroke-opacity="0.1"/>
<path d="M75.3754 47.0542C76.6849 47.1432 77.3397 47.1877 77.8689 47.4191C78.6347 47.754 79.246 48.3654 79.5809 49.1311C79.8124 49.6604 79.8568 50.3151 79.9458 51.6246L80.1489 54.613C80.1849 55.1426 80.2029 55.4074 80.2605 55.6604C80.3437 56.0259 80.4881 56.3747 80.6878 56.692C80.8259 56.9116 81.0005 57.1116 81.3495 57.5115L83.319 59.7682C84.1821 60.7571 84.6136 61.2516 84.8241 61.7895C85.1288 62.5677 85.1288 63.4323 84.8241 64.2106C84.6136 64.7485 84.1821 65.2429 83.319 66.2318L81.3495 68.4885C81.0005 68.8884 80.8259 69.0884 80.6878 69.308C80.4881 69.6253 80.3437 69.9741 80.2605 70.3396C80.2029 70.5926 80.1849 70.8574 80.1489 71.387L79.9458 74.3754C79.8568 75.6849 79.8124 76.3397 79.5809 76.8689C79.246 77.6347 78.6347 78.246 77.8689 78.5809C77.3397 78.8124 76.6849 78.8568 75.3754 78.9458L72.387 79.1489C71.8574 79.1849 71.5926 79.2029 71.3396 79.2605C70.9741 79.3437 70.6253 79.4881 70.308 79.6878C70.0884 79.8259 69.8884 80.0005 69.4885 80.3495L67.2318 82.319C66.2429 83.1821 65.7485 83.6136 65.2106 83.8241C64.4323 84.1288 63.5677 84.1288 62.7895 83.8241C62.2516 83.6136 61.7571 83.1821 60.7682 82.319L58.5115 80.3495C58.1116 80.0005 57.9116 79.8259 57.692 79.6878C57.3747 79.4881 57.0259 79.3437 56.6604 79.2605C56.4074 79.2029 56.1426 79.1849 55.613 79.1489L52.6246 78.9458C51.3151 78.8568 50.6604 78.8124 50.1311 78.5809C49.3654 78.246 48.754 77.6347 48.4191 76.8689C48.1877 76.3397 48.1432 75.6849 48.0542 74.3754L47.8511 71.387C47.8151 70.8574 47.7971 70.5926 47.7396 70.3396C47.6564 69.9741 47.5119 69.6253 47.3123 69.308C47.1741 69.0884 46.9996 68.8884 46.6505 68.4885L44.681 66.2318C43.818 65.2429 43.3864 64.7485 43.1759 64.2106C42.8712 63.4323 42.8712 62.5677 43.1759 61.7895C43.3864 61.2516 43.818 60.7571 44.681 59.7682L46.6505 57.5115C46.9996 57.1116 47.1741 56.9116 47.3123 56.692C47.5119 56.3747 47.6564 56.0259 47.7396 55.6604C47.7971 55.4074 47.8151 55.1426 47.8511 54.613L48.0542 51.6246C48.1432 50.3151 48.1877 49.6604 48.4191 49.1311C48.754 48.3654 49.3654 47.754 50.1311 47.4191C50.6604 47.1877 51.3151 47.1432 52.6246 47.0542L55.613 46.8511C56.1426 46.8151 56.4074 46.7971 56.6604 46.7396C57.0259 46.6564 57.3747 46.5119 57.692 46.3123C57.9116 46.1741 58.1116 45.9996 58.5115 45.6505L60.7682 43.681C61.7571 42.818 62.2516 42.3864 62.7895 42.1759C63.5677 41.8712 64.4323 41.8712 65.2106 42.1759C65.7485 42.3864 66.2429 42.818 67.2318 43.681L69.4885 45.6505C69.8884 45.9996 70.0884 46.1741 70.308 46.3123C70.6253 46.5119 70.9741 46.6564 71.3396 46.7396C71.5926 46.7971 71.8574 46.8151 72.387 46.8511L75.3754 47.0542Z" fill="#E7EF82" stroke="black" stroke-opacity="0.1"/>
<path d="M71.2803 52.7947C72.1184 52.8516 72.5374 52.8801 72.8761 53.0282C73.3662 53.2426 73.7575 53.6338 73.9718 54.1239C74.1199 54.4626 74.1484 54.8817 74.2054 55.7197L74.3353 57.6323C74.3584 57.9713 74.3699 58.1407 74.4067 58.3026C74.46 58.5366 74.5524 58.7598 74.6802 58.9629C74.7686 59.1034 74.8803 59.2314 75.1037 59.4874L76.3642 60.9317C76.9166 61.5645 77.1927 61.881 77.3275 62.2252C77.5225 62.7233 77.5225 63.2766 77.3275 63.7748C77.1927 64.119 76.9166 64.4354 76.3642 65.0683L75.1037 66.5126C74.8803 66.7686 74.7686 66.8966 74.6802 67.0371C74.5524 67.2402 74.46 67.4634 74.4067 67.6973C74.3699 67.8592 74.3584 68.0287 74.3353 68.3677L74.2054 70.2802C74.1484 71.1183 74.1199 71.5374 73.9718 71.8761C73.7575 72.3662 73.3662 72.7574 72.8761 72.9718C72.5374 73.1199 72.1184 73.1484 71.2803 73.2053L69.3677 73.3353C69.0288 73.3583 68.8593 73.3698 68.6974 73.4067C68.4635 73.4599 68.2402 73.5524 68.0372 73.6802C67.8966 73.7686 67.7686 73.8803 67.5127 74.1037L66.0684 75.3642C65.4355 75.9165 65.1191 76.1927 64.7748 76.3274C64.2767 76.5224 63.7234 76.5224 63.2253 76.3274C62.881 76.1927 62.5646 75.9165 61.9317 75.3642L60.4874 74.1037C60.2315 73.8803 60.1035 73.7686 59.9629 73.6802C59.7599 73.5524 59.5366 73.4599 59.3027 73.4067C59.1408 73.3698 58.9713 73.3583 58.6324 73.3353L56.7198 73.2053C55.8817 73.1484 55.4627 73.1199 55.124 72.9718C54.6339 72.7574 54.2426 72.3662 54.0283 71.8761C53.8802 71.5374 53.8517 71.1183 53.7947 70.2802L53.6648 68.3677C53.6417 68.0287 53.6302 67.8592 53.5934 67.6973C53.5401 67.4634 53.4477 67.2402 53.3199 67.0371C53.2315 66.8966 53.1198 66.7686 52.8964 66.5126L51.6359 65.0683C51.0835 64.4354 50.8074 64.119 50.6726 63.7748C50.4776 63.2766 50.4776 62.7233 50.6726 62.2252C50.8074 61.881 51.0835 61.5645 51.6359 60.9317L52.8964 59.4874C53.1198 59.2314 53.2315 59.1034 53.3199 58.9629C53.4477 58.7598 53.5401 58.5366 53.5934 58.3026C53.6302 58.1407 53.6417 57.9713 53.6648 57.6323L53.7947 55.7197C53.8517 54.8817 53.8802 54.4626 54.0283 54.1239C54.2426 53.6338 54.6339 53.2426 55.124 53.0282C55.4627 52.8801 55.8817 52.8516 56.7198 52.7947L58.6324 52.6647C58.9713 52.6417 59.1408 52.6301 59.3027 52.5933C59.5366 52.5401 59.7599 52.4476 59.9629 52.3198C60.1035 52.2314 60.2315 52.1197 60.4874 51.8963L61.9317 50.6358C62.5646 50.0835 62.881 49.8073 63.2253 49.6725C63.7234 49.4776 64.2767 49.4776 64.7748 49.6725C65.1191 49.8073 65.4355 50.0835 66.0684 50.6358L67.5127 51.8963C67.7686 52.1197 67.8966 52.2314 68.0372 52.3198C68.2402 52.4476 68.4635 52.5401 68.6974 52.5933C68.8593 52.6301 69.0288 52.6417 69.3677 52.6647L71.2803 52.7947Z" fill="#F3FE9E" stroke="black" stroke-opacity="0.1"/>
<path fill-rule="evenodd" clip-rule="evenodd" d="M68.7632 58.2363C68.2632 57.7364 67.124 57.9836 65.7494 58.7761C65.3377 57.2436 64.707 56.2632 63.9999 56.2632C63.2928 56.2632 62.662 57.2436 62.2504 58.7759C60.8759 57.9835 59.7367 57.7363 59.2367 58.2363C58.7367 58.7363 58.984 59.8757 59.7766 61.2504C58.2439 61.662 57.2632 62.2928 57.2632 63C57.2632 63.7071 58.2435 64.3378 59.7758 64.7495C58.9832 66.1242 58.7358 67.2636 59.2359 67.7637C59.7359 68.2637 60.8754 68.0164 62.2503 67.2236C62.6619 68.7563 63.2927 69.7369 63.9999 69.7369C64.707 69.7369 65.3379 68.7562 65.7495 67.2235C67.1244 68.0163 68.264 68.2637 68.7641 67.7636C69.2641 67.2636 69.0168 66.1242 68.2242 64.7495C69.7565 64.3378 70.7369 63.7071 70.7369 63C70.7369 62.2928 69.7562 61.662 68.2234 61.2504C69.0159 59.8757 69.2632 58.7363 68.7632 58.2363Z" fill="#273888"/>
</svg>
